<svg width="296" height="440" viewBox="0 0 296 440" fill="none" xmlns="http://www.w3.org/2000/svg">
<g filter="url(#filter0_f_264_3575)">
<rect x="8" y="56" width="40" height="40" rx="4" fill="#634225" fill-opacity="0.9"/>
</g>
<g filter="url(#filter1_f_264_3575)">
<rect x="8" y="112" width="40" height="40" rx="4" fill="#634225" fill-opacity="0.9"/>
</g>
<g filter="url(#filter2_f_264_3575)">
<rect x="8" y="168" width="40" height="40" rx="4" fill="#634225" fill-opacity="0.9"/>
</g>
<g filter="url(#filter3_f_264_3575)">
<rect x="8" y="224" width="40" height="40" rx="4" fill="#634225" fill-opacity="0.9"/>
</g>
<g filter="url(#filter4_f_264_3575)">
<rect x="8" y="280" width="40" height="40" rx="4" fill="#634225" fill-opacity="0.9"/>
</g>
<g filter="url(#filter5_f_264_3575)">
<rect x="8" y="336" width="40" height="40" rx="4" fill="#634225" fill-opacity="0.9"/>
</g>
<g filter="url(#filter6_f_264_3575)">
<rect x="8" y="392" width="40" height="40" rx="4" fill="#634225" fill-opacity="0.9"/>
</g>
<g filter="url(#filter7_f_264_3575)">
<rect x="48" y="56" width="40" height="40" rx="4" fill="#634225" fill-opacity="0.9"/>
</g>
<g filter="url(#filter8_f_264_3575)">
<rect x="48" y="112" width="40" height="40" rx="4" fill="#634225" fill-opacity="0.9"/>
</g>
<g filter="url(#filter9_f_264_3575)">
<rect x="48" y="168" width="40" height="40" rx="4" fill="#634225" fill-opacity="0.9"/>
</g>
<g filter="url(#filter10_f_264_3575)">
<rect x="48" y="224" width="40" height="40" rx="4" fill="#634225" fill-opacity="0.9"/>
</g>
<g filter="url(#filter11_f_264_3575)">
<rect x="48" y="280" width="40" height="40" rx="4" fill="#634225" fill-opacity="0.9"/>
</g>
<g filter="url(#filter12_f_264_3575)">
<rect x="48" y="336" width="40" height="40" rx="4" fill="#634225" fill-opacity="0.9"/>
</g>
<g filter="url(#filter13_f_264_3575)">
<rect x="48" y="392" width="40" height="40" rx="4" fill="#634225" fill-opacity="0.9"/>
</g>
<g filter="url(#filter14_f_264_3575)">
<rect x="88" y="56" width="40" height="40" rx="4" fill="#634225" fill-opacity="0.9"/>
</g>
<g filter="url(#filter15_f_264_3575)">
<rect x="88" y="112" width="40" height="40" rx="4" fill="#634225" fill-opacity="0.9"/>
</g>
<g filter="url(#filter16_f_264_3575)">
<rect x="88" y="168" width="40" height="40" rx="4" fill="#634225" fill-opacity="0.9"/>
</g>
<g filter="url(#filter17_f_264_3575)">
<rect x="88" y="224" width="40" height="40" rx="4" fill="#634225" fill-opacity="0.9"/>
</g>
<g filter="url(#filter18_f_264_3575)">
<rect x="88" y="280" width="40" height="40" rx="4" fill="#634225" fill-opacity="0.9"/>
</g>
<g filter="url(#filter19_f_264_3575)">
<rect x="88" y="336" width="40" height="40" rx="4" fill="#634225" fill-opacity="0.9"/>
</g>
<g filter="url(#filter20_f_264_3575)">
<rect x="88" y="392" width="40" height="40" rx="4" fill="#634225" fill-opacity="0.9"/>
</g>
<g filter="url(#filter21_f_264_3575)">
<rect x="128" y="56" width="40" height="40" rx="4" fill="#634225" fill-opacity="0.9"/>
</g>
<g filter="url(#filter22_f_264_3575)">
<rect x="128" y="112" width="40" height="40" rx="4" fill="#634225" fill-opacity="0.9"/>
</g>
<g filter="url(#filter23_f_264_3575)">
<rect x="128" y="168" width="40" height="40" rx="4" fill="#634225" fill-opacity="0.9"/>
</g>
<g filter="url(#filter24_f_264_3575)">
<rect x="128" y="224" width="40" height="40" rx="4" fill="#634225" fill-opacity="0.9"/>
</g>
<g filter="url(#filter25_f_264_3575)">
<rect x="128" y="280" width="40" height="40" rx="4" fill="#634225" fill-opacity="0.9"/>
</g>
<g filter="url(#filter26_f_264_3575)">
<rect x="128" y="336" width="40" height="40" rx="4" fill="#634225" fill-opacity="0.9"/>
</g>
<g filter="url(#filter27_f_264_3575)">
<rect x="128" y="392" width="40" height="40" rx="4" fill="#634225" fill-opacity="0.9"/>
</g>
<g filter="url(#filter28_f_264_3575)">
<rect x="168" y="56" width="40" height="40" rx="4" fill="#634225" fill-opacity="0.9"/>
</g>
<g filter="url(#filter29_f_264_3575)">
<rect x="168" y="112" width="40" height="40" rx="4" fill="#634225" fill-opacity="0.9"/>
</g>
<g filter="url(#filter30_f_264_3575)">
<rect x="168" y="168" width="40" height="40" rx="4" fill="#634225" fill-opacity="0.9"/>
</g>
<g filter="url(#filter31_f_264_3575)">
<rect x="168" y="224" width="40" height="40" rx="4" fill="#634225" fill-opacity="0.9"/>
</g>
<g filter="url(#filter32_f_264_3575)">
<rect x="168" y="280" width="40" height="40" rx="4" fill="#634225" fill-opacity="0.9"/>
</g>
<g filter="url(#filter33_f_264_3575)">
<rect x="168" y="336" width="40" height="40" rx="4" fill="#634225" fill-opacity="0.9"/>
</g>
<g filter="url(#filter34_f_264_3575)">
<rect x="168" y="392" width="40" height="40" rx="4" fill="#634225" fill-opacity="0.9"/>
</g>
<g filter="url(#filter35_f_264_3575)">
<rect x="208" y="56" width="40" height="40" rx="4" fill="#634225" fill-opacity="0.9"/>
</g>
<g filter="url(#filter36_f_264_3575)">
<rect x="208" y="112" width="40" height="40" rx="4" fill="#634225" fill-opacity="0.9"/>
</g>
<g filter="url(#filter37_f_264_3575)">
<rect x="208" y="168" width="40" height="40" rx="4" fill="#634225" fill-opacity="0.9"/>
</g>
<g filter="url(#filter38_f_264_3575)">
<rect x="208" y="224" width="40" height="40" rx="4" fill="#634225" fill-opacity="0.9"/>
</g>
<g filter="url(#filter39_f_264_3575)">
<rect x="208" y="280" width="40" height="40" rx="4" fill="#634225" fill-opacity="0.9"/>
</g>
<g filter="url(#filter40_f_264_3575)">
<rect x="208" y="336" width="40" height="40" rx="4" fill="#634225" fill-opacity="0.9"/>
</g>
<g filter="url(#filter41_f_264_3575)">
<rect x="208" y="392" width="40" height="40" rx="4" fill="#634225" fill-opacity="0.9"/>
</g>
<g filter="url(#filter42_f_264_3575)">
<rect x="248" y="56" width="40" height="40" rx="4" fill="#634225" fill-opacity="0.9"/>
</g>
<g filter="url(#filter43_f_264_3575)">
<rect x="248" y="112" width="40" height="40" rx="4" fill="#634225" fill-opacity="0.9"/>
</g>
<g filter="url(#filter44_f_264_3575)">
<rect x="248" y="168" width="40" height="40" rx="4" fill="#634225" fill-opacity="0.9"/>
</g>
<g filter="url(#filter45_f_264_3575)">
<rect x="248" y="224" width="40" height="40" rx="4" fill="#634225" fill-opacity="0.9"/>
</g>
<g filter="url(#filter46_f_264_3575)">
<rect x="248" y="280" width="40" height="40" rx="4" fill="#634225" fill-opacity="0.9"/>
</g>
<g filter="url(#filter47_f_264_3575)">
<rect x="248" y="336" width="40" height="40" rx="4" fill="#634225" fill-opacity="0.9"/>
</g>
<g filter="url(#filter48_f_264_3575)">
<rect x="248" y="392" width="40" height="40" rx="4" fill="#634225" fill-opacity="0.9"/>
</g>
<rect x="8" width="40" height="40" rx="4" fill="#634225"/>
<g clip-path="url(#clip0_264_3575)">
<path d="M41 20C41 12.8203 35.1797 7 28 7C20.8203 7 15 12.8203 15 20C15 27.1797 20.8203 33 28 33C35.1797 33 41 27.1797 41 20Z" fill="#6AAA00"/>
<path d="M36 18.5H20.5C19.6716 18.5 19 19.1716 19 20C19 20.8284 19.6716 21.5 20.5 21.5H36C36.8284 21.5 37.5 20.8284 37.5 20C37.5 19.1716 36.8284 18.5 36 18.5Z" fill="#333333"/>
<path d="M26.5 12V27.5C26.5 28.3284 27.1716 29 28 29C28.8284 29 29.5 28.3284 29.5 27.5V12C29.5 11.1716 28.8284 10.5 28 10.5C27.1716 10.5 26.5 11.1716 26.5 12Z" fill="#333333"/>
</g>
<rect x="48" width="40" height="40" rx="4" fill="#634225"/>
<g clip-path="url(#clip1_264_3575)">
<path d="M81 20C81 12.8203 75.1797 7 68 7C60.8203 7 55 12.8203 55 20C55 27.1797 60.8203 33 68 33C75.1797 33 81 27.1797 81 20Z" fill="#6AAA00"/>
<path d="M76 18.5H60.5C59.6716 18.5 59 19.1716 59 20C59 20.8284 59.6716 21.5 60.5 21.5H76C76.8284 21.5 77.5 20.8284 77.5 20C77.5 19.1716 76.8284 18.5 76 18.5Z" fill="#333333"/>
<path d="M66.5 12V27.5C66.5 28.3284 67.1716 29 68 29C68.8284 29 69.5 28.3284 69.5 27.5V12C69.5 11.1716 68.8284 10.5 68 10.5C67.1716 10.5 66.5 11.1716 66.5 12Z" fill="#333333"/>
</g>
<rect x="88" width="40" height="40" rx="4" fill="#634225"/>
<g clip-path="url(#clip2_264_3575)">
<path d="M121 20C121 12.8203 115.18 7 108 7C100.82 7 95 12.8203 95 20C95 27.1797 100.82 33 108 33C115.18 33 121 27.1797 121 20Z" fill="#6AAA00"/>
<path d="M116 18.5H100.5C99.6716 18.5 99 19.1716 99 20C99 20.8284 99.6716 21.5 100.5 21.5H116C116.828 21.5 117.5 20.8284 117.5 20C117.5 19.1716 116.828 18.5 116 18.5Z" fill="#333333"/>
<path d="M106.5 12V27.5C106.5 28.3284 107.172 29 108 29C108.828 29 109.5 28.3284 109.5 27.5V12C109.5 11.1716 108.828 10.5 108 10.5C107.172 10.5 106.5 11.1716 106.5 12Z" fill="#333333"/>
</g>
<rect x="128" width="40" height="40" rx="4" fill="#634225"/>
<g clip-path="url(#clip3_264_3575)">
<path d="M161 20C161 12.8203 155.18 7 148 7C140.82 7 135 12.8203 135 20C135 27.1797 140.82 33 148 33C155.18 33 161 27.1797 161 20Z" fill="#6AAA00"/>
<path d="M156 18.5H140.5C139.672 18.5 139 19.1716 139 20C139 20.8284 139.672 21.5 140.5 21.5H156C156.828 21.5 157.5 20.8284 157.5 20C157.5 19.1716 156.828 18.5 156 18.5Z" fill="#333333"/>
<path d="M146.5 12V27.5C146.5 28.3284 147.172 29 148 29C148.828 29 149.5 28.3284 149.5 27.5V12C149.5 11.1716 148.828 10.5 148 10.5C147.172 10.5 146.5 11.1716 146.5 12Z" fill="#333333"/>
</g>
<rect x="168" width="40" height="40" rx="4" fill="#634225"/>
<g clip-path="url(#clip4_264_3575)">
<path d="M201 20C201 12.8203 195.18 7 188 7C180.82 7 175 12.8203 175 20C175 27.1797 180.82 33 188 33C195.18 33 201 27.1797 201 20Z" fill="#6AAA00"/>
<path d="M196 18.5H180.5C179.672 18.5 179 19.1716 179 20C179 20.8284 179.672 21.5 180.5 21.5H196C196.828 21.5 197.5 20.8284 197.5 20C197.5 19.1716 196.828 18.5 196 18.5Z" fill="#333333"/>
<path d="M186.5 12V27.5C186.5 28.3284 187.172 29 188 29C188.828 29 189.5 28.3284 189.5 27.5V12C189.5 11.1716 188.828 10.5 188 10.5C187.172 10.5 186.5 11.1716 186.5 12Z" fill="#333333"/>
</g>
<rect x="208" width="40" height="40" rx="4" fill="#634225"/>
<g clip-path="url(#clip5_264_3575)">
<path d="M241 20C241 12.8203 235.18 7 228 7C220.82 7 215 12.8203 215 20C215 27.1797 220.82 33 228 33C235.18 33 241 27.1797 241 20Z" fill="#6AAA00"/>
<path d="M236 18.5H220.5C219.672 18.5 219 19.1716 219 20C219 20.8284 219.672 21.5 220.5 21.5H236C236.828 21.5 237.5 20.8284 237.5 20C237.5 19.1716 236.828 18.5 236 18.5Z" fill="#333333"/>
<path d="M226.5 12V27.5C226.5 28.3284 227.172 29 228 29C228.828 29 229.5 28.3284 229.5 27.5V12C229.5 11.1716 228.828 10.5 228 10.5C227.172 10.5 226.5 11.1716 226.5 12Z" fill="#333333"/>
</g>
<rect x="248" width="40" height="40" rx="4" fill="#634225"/>
<rect x="266.877" y="16.7649" width="3.19565" height="14.2352" fill="#93642D"/>
<rect x="266.877" y="15.5403" width="3.10832" height="10.2797" fill="#714D22"/>
<path d="M268.5 9L277.593 23.8823H259.407L268.5 9Z" fill="#66A865"/>
<defs>
<filter id="filter0_f_264_3575" x="0" y="48" width="56" height="56" filterUnits="userSpaceOnUse" color-interpolation-filters="sRGB">
<feFlood flood-opacity="0" result="BackgroundImageFix"/>
<feBlend mode="normal" in="SourceGraphic" in2="BackgroundImageFix" result="shape"/>
<feGaussianBlur stdDeviation="4" result="effect1_foregroundBlur_264_3575"/>
</filter>
<filter id="filter1_f_264_3575" x="0" y="104" width="56" height="56" filterUnits="userSpaceOnUse" color-interpolation-filters="sRGB">
<feFlood flood-opacity="0" result="BackgroundImageFix"/>
<feBlend mode="normal" in="SourceGraphic" in2="BackgroundImageFix" result="shape"/>
<feGaussianBlur stdDeviation="4" result="effect1_foregroundBlur_264_3575"/>
</filter>
<filter id="filter2_f_264_3575" x="0" y="160" width="56" height="56" filterUnits="userSpaceOnUse" color-interpolation-filters="sRGB">
<feFlood flood-opacity="0" result="BackgroundImageFix"/>
<feBlend mode="normal" in="SourceGraphic" in2="BackgroundImageFix" result="shape"/>
<feGaussianBlur stdDeviation="4" result="effect1_foregroundBlur_264_3575"/>
</filter>
<filter id="filter3_f_264_3575" x="0" y="216" width="56" height="56" filterUnits="userSpaceOnUse" color-interpolation-filters="sRGB">
<feFlood flood-opacity="0" result="BackgroundImageFix"/>
<feBlend mode="normal" in="SourceGraphic" in2="BackgroundImageFix" result="shape"/>
<feGaussianBlur stdDeviation="4" result="effect1_foregroundBlur_264_3575"/>
</filter>
<filter id="filter4_f_264_3575" x="0" y="272" width="56" height="56" filterUnits="userSpaceOnUse" color-interpolation-filters="sRGB">
<feFlood flood-opacity="0" result="BackgroundImageFix"/>
<feBlend mode="normal" in="SourceGraphic" in2="BackgroundImageFix" result="shape"/>
<feGaussianBlur stdDeviation="4" result="effect1_foregroundBlur_264_3575"/>
</filter>
<filter id="filter5_f_264_3575" x="0" y="328" width="56" height="56" filterUnits="userSpaceOnUse" color-interpolation-filters="sRGB">
<feFlood flood-opacity="0" result="BackgroundImageFix"/>
<feBlend mode="normal" in="SourceGraphic" in2="BackgroundImageFix" result="shape"/>
<feGaussianBlur stdDeviation="4" result="effect1_foregroundBlur_264_3575"/>
</filter>
<filter id="filter6_f_264_3575" x="0" y="384" width="56" height="56" filterUnits="userSpaceOnUse" color-interpolation-filters="sRGB">
<feFlood flood-opacity="0" result="BackgroundImageFix"/>
<feBlend mode="normal" in="SourceGraphic" in2="BackgroundImageFix" result="shape"/>
<feGaussianBlur stdDeviation="4" result="effect1_foregroundBlur_264_3575"/>
</filter>
<filter id="filter7_f_264_3575" x="40" y="48" width="56" height="56" filterUnits="userSpaceOnUse" color-interpolation-filters="sRGB">
<feFlood flood-opacity="0" result="BackgroundImageFix"/>
<feBlend mode="normal" in="SourceGraphic" in2="BackgroundImageFix" result="shape"/>
<feGaussianBlur stdDeviation="4" result="effect1_foregroundBlur_264_3575"/>
</filter>
<filter id="filter8_f_264_3575" x="40" y="104" width="56" height="56" filterUnits="userSpaceOnUse" color-interpolation-filters="sRGB">
<feFlood flood-opacity="0" result="BackgroundImageFix"/>
<feBlend mode="normal" in="SourceGraphic" in2="BackgroundImageFix" result="shape"/>
<feGaussianBlur stdDeviation="4" result="effect1_foregroundBlur_264_3575"/>
</filter>
<filter id="filter9_f_264_3575" x="40" y="160" width="56" height="56" filterUnits="userSpaceOnUse" color-interpolation-filters="sRGB">
<feFlood flood-opacity="0" result="BackgroundImageFix"/>
<feBlend mode="normal" in="SourceGraphic" in2="BackgroundImageFix" result="shape"/>
<feGaussianBlur stdDeviation="4" result="effect1_foregroundBlur_264_3575"/>
</filter>
<filter id="filter10_f_264_3575" x="40" y="216" width="56" height="56" filterUnits="userSpaceOnUse" color-interpolation-filters="sRGB">
<feFlood flood-opacity="0" result="BackgroundImageFix"/>
<feBlend mode="normal" in="SourceGraphic" in2="BackgroundImageFix" result="shape"/>
<feGaussianBlur stdDeviation="4" result="effect1_foregroundBlur_264_3575"/>
</filter>
<filter id="filter11_f_264_3575" x="40" y="272" width="56" height="56" filterUnits="userSpaceOnUse" color-interpolation-filters="sRGB">
<feFlood flood-opacity="0" result="BackgroundImageFix"/>
<feBlend mode="normal" in="SourceGraphic" in2="BackgroundImageFix" result="shape"/>
<feGaussianBlur stdDeviation="4" result="effect1_foregroundBlur_264_3575"/>
</filter>
<filter id="filter12_f_264_3575" x="40" y="328" width="56" height="56" filterUnits="userSpaceOnUse" color-interpolation-filters="sRGB">
<feFlood flood-opacity="0" result="BackgroundImageFix"/>
<feBlend mode="normal" in="SourceGraphic" in2="BackgroundImageFix" result="shape"/>
<feGaussianBlur stdDeviation="4" result="effect1_foregroundBlur_264_3575"/>
</filter>
<filter id="filter13_f_264_3575" x="40" y="384" width="56" height="56" filterUnits="userSpaceOnUse" color-interpolation-filters="sRGB">
<feFlood flood-opacity="0" result="BackgroundImageFix"/>
<feBlend mode="normal" in="SourceGraphic" in2="BackgroundImageFix" result="shape"/>
<feGaussianBlur stdDeviation="4" result="effect1_foregroundBlur_264_3575"/>
</filter>
<filter id="filter14_f_264_3575" x="80" y="48" width="56" height="56" filterUnits="userSpaceOnUse" color-interpolation-filters="sRGB">
<feFlood flood-opacity="0" result="BackgroundImageFix"/>
<feBlend mode="normal" in="SourceGraphic" in2="BackgroundImageFix" result="shape"/>
<feGaussianBlur stdDeviation="4" result="effect1_foregroundBlur_264_3575"/>
</filter>
<filter id="filter15_f_264_3575" x="80" y="104" width="56" height="56" filterUnits="userSpaceOnUse" color-interpolation-filters="sRGB">
<feFlood flood-opacity="0" result="BackgroundImageFix"/>
<feBlend mode="normal" in="SourceGraphic" in2="BackgroundImageFix" result="shape"/>
<feGaussianBlur stdDeviation="4" result="effect1_foregroundBlur_264_3575"/>
</filter>
<filter id="filter16_f_264_3575" x="80" y="160" width="56" height="56" filterUnits="userSpaceOnUse" color-interpolation-filters="sRGB">
<feFlood flood-opacity="0" result="BackgroundImageFix"/>
<feBlend mode="normal" in="SourceGraphic" in2="BackgroundImageFix" result="shape"/>
<feGaussianBlur stdDeviation="4" result="effect1_foregroundBlur_264_3575"/>
</filter>
<filter id="filter17_f_264_3575" x="80" y="216" width="56" height="56" filterUnits="userSpaceOnUse" color-interpolation-filters="sRGB">
<feFlood flood-opacity="0" result="BackgroundImageFix"/>
<feBlend mode="normal" in="SourceGraphic" in2="BackgroundImageFix" result="shape"/>
<feGaussianBlur stdDeviation="4" result="effect1_foregroundBlur_264_3575"/>
</filter>
<filter id="filter18_f_264_3575" x="80" y="272" width="56" height="56" filterUnits="userSpaceOnUse" color-interpolation-filters="sRGB">
<feFlood flood-opacity="0" result="BackgroundImageFix"/>
<feBlend mode="normal" in="SourceGraphic" in2="BackgroundImageFix" result="shape"/>
<feGaussianBlur stdDeviation="4" result="effect1_foregroundBlur_264_3575"/>
</filter>
<filter id="filter19_f_264_3575" x="80" y="328" width="56" height="56" filterUnits="userSpaceOnUse" color-interpolation-filters="sRGB">
<feFlood flood-opacity="0" result="BackgroundImageFix"/>
<feBlend mode="normal" in="SourceGraphic" in2="BackgroundImageFix" result="shape"/>
<feGaussianBlur stdDeviation="4" result="effect1_foregroundBlur_264_3575"/>
</filter>
<filter id="filter20_f_264_3575" x="80" y="384" width="56" height="56" filterUnits="userSpaceOnUse" color-interpolation-filters="sRGB">
<feFlood flood-opacity="0" result="BackgroundImageFix"/>
<feBlend mode="normal" in="SourceGraphic" in2="BackgroundImageFix" result="shape"/>
<feGaussianBlur stdDeviation="4" result="effect1_foregroundBlur_264_3575"/>
</filter>
<filter id="filter21_f_264_3575" x="120" y="48" width="56" height="56" filterUnits="userSpaceOnUse" color-interpolation-filters="sRGB">
<feFlood flood-opacity="0" result="BackgroundImageFix"/>
<feBlend mode="normal" in="SourceGraphic" in2="BackgroundImageFix" result="shape"/>
<feGaussianBlur stdDeviation="4" result="effect1_foregroundBlur_264_3575"/>
</filter>
<filter id="filter22_f_264_3575" x="120" y="104" width="56" height="56" filterUnits="userSpaceOnUse" color-interpolation-filters="sRGB">
<feFlood flood-opacity="0" result="BackgroundImageFix"/>
<feBlend mode="normal" in="SourceGraphic" in2="BackgroundImageFix" result="shape"/>
<feGaussianBlur stdDeviation="4" result="effect1_foregroundBlur_264_3575"/>
</filter>
<filter id="filter23_f_264_3575" x="120" y="160" width="56" height="56" filterUnits="userSpaceOnUse" color-interpolation-filters="sRGB">
<feFlood flood-opacity="0" result="BackgroundImageFix"/>
<feBlend mode="normal" in="SourceGraphic" in2="BackgroundImageFix" result="shape"/>
<feGaussianBlur stdDeviation="4" result="effect1_foregroundBlur_264_3575"/>
</filter>
<filter id="filter24_f_264_3575" x="120" y="216" width="56" height="56" filterUnits="userSpaceOnUse" color-interpolation-filters="sRGB">
<feFlood flood-opacity="0" result="BackgroundImageFix"/>
<feBlend mode="normal" in="SourceGraphic" in2="BackgroundImageFix" result="shape"/>
<feGaussianBlur stdDeviation="4" result="effect1_foregroundBlur_264_3575"/>
</filter>
<filter id="filter25_f_264_3575" x="120" y="272" width="56" height="56" filterUnits="userSpaceOnUse" color-interpolation-filters="sRGB">
<feFlood flood-opacity="0" result="BackgroundImageFix"/>
<feBlend mode="normal" in="SourceGraphic" in2="BackgroundImageFix" result="shape"/>
<feGaussianBlur stdDeviation="4" result="effect1_foregroundBlur_264_3575"/>
</filter>
<filter id="filter26_f_264_3575" x="120" y="328" width="56" height="56" filterUnits="userSpaceOnUse" color-interpolation-filters="sRGB">
<feFlood flood-opacity="0" result="BackgroundImageFix"/>
<feBlend mode="normal" in="SourceGraphic" in2="BackgroundImageFix" result="shape"/>
<feGaussianBlur stdDeviation="4" result="effect1_foregroundBlur_264_3575"/>
</filter>
<filter id="filter27_f_264_3575" x="120" y="384" width="56" height="56" filterUnits="userSpaceOnUse" color-interpolation-filters="sRGB">
<feFlood flood-opacity="0" result="BackgroundImageFix"/>
<feBlend mode="normal" in="SourceGraphic" in2="BackgroundImageFix" result="shape"/>
<feGaussianBlur stdDeviation="4" result="effect1_foregroundBlur_264_3575"/>
</filter>
<filter id="filter28_f_264_3575" x="160" y="48" width="56" height="56" filterUnits="userSpaceOnUse" color-interpolation-filters="sRGB">
<feFlood flood-opacity="0" result="BackgroundImageFix"/>
<feBlend mode="normal" in="SourceGraphic" in2="BackgroundImageFix" result="shape"/>
<feGaussianBlur stdDeviation="4" result="effect1_foregroundBlur_264_3575"/>
</filter>
<filter id="filter29_f_264_3575" x="160" y="104" width="56" height="56" filterUnits="userSpaceOnUse" color-interpolation-filters="sRGB">
<feFlood flood-opacity="0" result="BackgroundImageFix"/>
<feBlend mode="normal" in="SourceGraphic" in2="BackgroundImageFix" result="shape"/>
<feGaussianBlur stdDeviation="4" result="effect1_foregroundBlur_264_3575"/>
</filter>
<filter id="filter30_f_264_3575" x="160" y="160" width="56" height="56" filterUnits="userSpaceOnUse" color-interpolation-filters="sRGB">
<feFlood flood-opacity="0" result="BackgroundImageFix"/>
<feBlend mode="normal" in="SourceGraphic" in2="BackgroundImageFix" result="shape"/>
<feGaussianBlur stdDeviation="4" result="effect1_foregroundBlur_264_3575"/>
</filter>
<filter id="filter31_f_264_3575" x="160" y="216" width="56" height="56" filterUnits="userSpaceOnUse" color-interpolation-filters="sRGB">
<feFlood flood-opacity="0" result="BackgroundImageFix"/>
<feBlend mode="normal" in="SourceGraphic" in2="BackgroundImageFix" result="shape"/>
<feGaussianBlur stdDeviation="4" result="effect1_foregroundBlur_264_3575"/>
</filter>
<filter id="filter32_f_264_3575" x="160" y="272" width="56" height="56" filterUnits="userSpaceOnUse" color-interpolation-filters="sRGB">
<feFlood flood-opacity="0" result="BackgroundImageFix"/>
<feBlend mode="normal" in="SourceGraphic" in2="BackgroundImageFix" result="shape"/>
<feGaussianBlur stdDeviation="4" result="effect1_foregroundBlur_264_3575"/>
</filter>
<filter id="filter33_f_264_3575" x="160" y="328" width="56" height="56" filterUnits="userSpaceOnUse" color-interpolation-filters="sRGB">
<feFlood flood-opacity="0" result="BackgroundImageFix"/>
<feBlend mode="normal" in="SourceGraphic" in2="BackgroundImageFix" result="shape"/>
<feGaussianBlur stdDeviation="4" result="effect1_foregroundBlur_264_3575"/>
</filter>
<filter id="filter34_f_264_3575" x="160" y="384" width="56" height="56" filterUnits="userSpaceOnUse" color-interpolation-filters="sRGB">
<feFlood flood-opacity="0" result="BackgroundImageFix"/>
<feBlend mode="normal" in="SourceGraphic" in2="BackgroundImageFix" result="shape"/>
<feGaussianBlur stdDeviation="4" result="effect1_foregroundBlur_264_3575"/>
</filter>
<filter id="filter35_f_264_3575" x="200" y="48" width="56" height="56" filterUnits="userSpaceOnUse" color-interpolation-filters="sRGB">
<feFlood flood-opacity="0" result="BackgroundImageFix"/>
<feBlend mode="normal" in="SourceGraphic" in2="BackgroundImageFix" result="shape"/>
<feGaussianBlur stdDeviation="4" result="effect1_foregroundBlur_264_3575"/>
</filter>
<filter id="filter36_f_264_3575" x="200" y="104" width="56" height="56" filterUnits="userSpaceOnUse" color-interpolation-filters="sRGB">
<feFlood flood-opacity="0" result="BackgroundImageFix"/>
<feBlend mode="normal" in="SourceGraphic" in2="BackgroundImageFix" result="shape"/>
<feGaussianBlur stdDeviation="4" result="effect1_foregroundBlur_264_3575"/>
</filter>
<filter id="filter37_f_264_3575" x="200" y="160" width="56" height="56" filterUnits="userSpaceOnUse" color-interpolation-filters="sRGB">
<feFlood flood-opacity="0" result="BackgroundImageFix"/>
<feBlend mode="normal" in="SourceGraphic" in2="BackgroundImageFix" result="shape"/>
<feGaussianBlur stdDeviation="4" result="effect1_foregroundBlur_264_3575"/>
</filter>
<filter id="filter38_f_264_3575" x="200" y="216" width="56" height="56" filterUnits="userSpaceOnUse" color-interpolation-filters="sRGB">
<feFlood flood-opacity="0" result="BackgroundImageFix"/>
<feBlend mode="normal" in="SourceGraphic" in2="BackgroundImageFix" result="shape"/>
<feGaussianBlur stdDeviation="4" result="effect1_foregroundBlur_264_3575"/>
</filter>
<filter id="filter39_f_264_3575" x="200" y="272" width="56" height="56" filterUnits="userSpaceOnUse" color-interpolation-filters="sRGB">
<feFlood flood-opacity="0" result="BackgroundImageFix"/>
<feBlend mode="normal" in="SourceGraphic" in2="BackgroundImageFix" result="shape"/>
<feGaussianBlur stdDeviation="4" result="effect1_foregroundBlur_264_3575"/>
</filter>
<filter id="filter40_f_264_3575" x="200" y="328" width="56" height="56" filterUnits="userSpaceOnUse" color-interpolation-filters="sRGB">
<feFlood flood-opacity="0" result="BackgroundImageFix"/>
<feBlend mode="normal" in="SourceGraphic" in2="BackgroundImageFix" result="shape"/>
<feGaussianBlur stdDeviation="4" result="effect1_foregroundBlur_264_3575"/>
</filter>
<filter id="filter41_f_264_3575" x="200" y="384" width="56" height="56" filterUnits="userSpaceOnUse" color-interpolation-filters="sRGB">
<feFlood flood-opacity="0" result="BackgroundImageFix"/>
<feBlend mode="normal" in="SourceGraphic" in2="BackgroundImageFix" result="shape"/>
<feGaussianBlur stdDeviation="4" result="effect1_foregroundBlur_264_3575"/>
</filter>
<filter id="filter42_f_264_3575" x="240" y="48" width="56" height="56" filterUnits="userSpaceOnUse" color-interpolation-filters="sRGB">
<feFlood flood-opacity="0" result="BackgroundImageFix"/>
<feBlend mode="normal" in="SourceGraphic" in2="BackgroundImageFix" result="shape"/>
<feGaussianBlur stdDeviation="4" result="effect1_foregroundBlur_264_3575"/>
</filter>
<filter id="filter43_f_264_3575" x="240" y="104" width="56" height="56" filterUnits="userSpaceOnUse" color-interpolation-filters="sRGB">
<feFlood flood-opacity="0" result="BackgroundImageFix"/>
<feBlend mode="normal" in="SourceGraphic" in2="BackgroundImageFix" result="shape"/>
<feGaussianBlur stdDeviation="4" result="effect1_foregroundBlur_264_3575"/>
</filter>
<filter id="filter44_f_264_3575" x="240" y="160" width="56" height="56" filterUnits="userSpaceOnUse" color-interpolation-filters="sRGB">
<feFlood flood-opacity="0" result="BackgroundImageFix"/>
<feBlend mode="normal" in="SourceGraphic" in2="BackgroundImageFix" result="shape"/>
<feGaussianBlur stdDeviation="4" result="effect1_foregroundBlur_264_3575"/>
</filter>
<filter id="filter45_f_264_3575" x="240" y="216" width="56" height="56" filterUnits="userSpaceOnUse" color-interpolation-filters="sRGB">
<feFlood flood-opacity="0" result="BackgroundImageFix"/>
<feBlend mode="normal" in="SourceGraphic" in2="BackgroundImageFix" result="shape"/>
<feGaussianBlur stdDeviation="4" result="effect1_foregroundBlur_264_3575"/>
</filter>
<filter id="filter46_f_264_3575" x="240" y="272" width="56" height="56" filterUnits="userSpaceOnUse" color-interpolation-filters="sRGB">
<feFlood flood-opacity="0" result="BackgroundImageFix"/>
<feBlend mode="normal" in="SourceGraphic" in2="BackgroundImageFix" result="shape"/>
<feGaussianBlur stdDeviation="4" result="effect1_foregroundBlur_264_3575"/>
</filter>
<filter id="filter47_f_264_3575" x="240" y="328" width="56" height="56" filterUnits="userSpaceOnUse" color-interpolation-filters="sRGB">
<feFlood flood-opacity="0" result="BackgroundImageFix"/>
<feBlend mode="normal" in="SourceGraphic" in2="BackgroundImageFix" result="shape"/>
<feGaussianBlur stdDeviation="4" result="effect1_foregroundBlur_264_3575"/>
</filter>
<filter id="filter48_f_264_3575" x="240" y="384" width="56" height="56" filterUnits="userSpaceOnUse" color-interpolation-filters="sRGB">
<feFlood flood-opacity="0" result="BackgroundImageFix"/>
<feBlend mode="normal" in="SourceGraphic" in2="BackgroundImageFix" result="shape"/>
<feGaussianBlur stdDeviation="4" result="effect1_foregroundBlur_264_3575"/>
</filter>
<clipPath id="clip0_264_3575">
<rect width="26" height="26" fill="white" transform="translate(15 7)"/>
</clipPath>
<clipPath id="clip1_264_3575">
<rect width="26" height="26" fill="white" transform="translate(55 7)"/>
</clipPath>
<clipPath id="clip2_264_3575">
<rect width="26" height="26" fill="white" transform="translate(95 7)"/>
</clipPath>
<clipPath id="clip3_264_3575">
<rect width="26" height="26" fill="white" transform="translate(135 7)"/>
</clipPath>
<clipPath id="clip4_264_3575">
<rect width="26" height="26" fill="white" transform="translate(175 7)"/>
</clipPath>
<clipPath id="clip5_264_3575">
<rect width="26" height="26" fill="white" transform="translate(215 7)"/>
</clipPath>
</defs>
</svg>
